<mxfile host="Electron" modified="2023-10-19T14:18:11.950Z" agent="Mozilla/5.0 (Windows NT 10.0; Win64; x64) AppleWebKit/537.36 (KHTML, like Gecko) draw.io/22.0.2 Chrome/114.0.5735.289 Electron/25.8.4 Safari/537.36" etag="qKr8lc8VKmqvevT3c_nO" version="22.0.2" type="device" pages="4">
  <diagram name="âœ… /register" id="n4RXiYb7iekZJmX982mG">
    <mxGraphModel dx="1050" dy="3871" grid="1" gridSize="10" guides="1" tooltips="1" connect="1" arrows="1" fold="1" page="0" pageScale="1" pageWidth="827" pageHeight="1169" background="none" math="0" shadow="0">
      <root>
        <mxCell id="DcINIHE9Md0JuFdxifOZ-0" />
        <mxCell id="DcINIHE9Md0JuFdxifOZ-1" parent="DcINIHE9Md0JuFdxifOZ-0" />
        <mxCell id="QFU8cy6q5ti2VS8Cwsc9-1" style="edgeStyle=none;curved=1;rounded=0;orthogonalLoop=1;jettySize=auto;html=1;fontSize=12;startSize=8;endSize=8;fontFamily=Helvetica;" parent="DcINIHE9Md0JuFdxifOZ-1" source="QFU8cy6q5ti2VS8Cwsc9-0" edge="1">
          <mxGeometry relative="1" as="geometry">
            <mxPoint x="169" y="-2520" as="targetPoint" />
          </mxGeometry>
        </mxCell>
        <mxCell id="QFU8cy6q5ti2VS8Cwsc9-0" value="Client" style="rounded=0;whiteSpace=wrap;html=1;fontFamily=Helvetica;" parent="DcINIHE9Md0JuFdxifOZ-1" vertex="1">
          <mxGeometry x="110" y="-2920" width="120" height="40" as="geometry" />
        </mxCell>
        <mxCell id="QFU8cy6q5ti2VS8Cwsc9-4" style="edgeStyle=none;curved=1;rounded=0;orthogonalLoop=1;jettySize=auto;html=1;fontSize=12;startSize=8;endSize=8;fontFamily=Helvetica;" parent="DcINIHE9Md0JuFdxifOZ-1" source="QFU8cy6q5ti2VS8Cwsc9-2" edge="1">
          <mxGeometry relative="1" as="geometry">
            <mxPoint x="360" y="-2520" as="targetPoint" />
          </mxGeometry>
        </mxCell>
        <mxCell id="QFU8cy6q5ti2VS8Cwsc9-2" value="User" style="rounded=0;whiteSpace=wrap;html=1;fontFamily=Helvetica;" parent="DcINIHE9Md0JuFdxifOZ-1" vertex="1">
          <mxGeometry x="300" y="-2920" width="120" height="40" as="geometry" />
        </mxCell>
        <mxCell id="QFU8cy6q5ti2VS8Cwsc9-5" style="edgeStyle=none;curved=1;rounded=0;orthogonalLoop=1;jettySize=auto;html=1;fontSize=12;startSize=8;endSize=8;fontFamily=Helvetica;" parent="DcINIHE9Md0JuFdxifOZ-1" source="QFU8cy6q5ti2VS8Cwsc9-3" edge="1">
          <mxGeometry relative="1" as="geometry">
            <mxPoint x="547" y="-2520" as="targetPoint" />
          </mxGeometry>
        </mxCell>
        <mxCell id="QFU8cy6q5ti2VS8Cwsc9-3" value="Identity" style="rounded=0;whiteSpace=wrap;html=1;fontFamily=Helvetica;" parent="DcINIHE9Md0JuFdxifOZ-1" vertex="1">
          <mxGeometry x="487" y="-2920" width="120" height="40" as="geometry" />
        </mxCell>
        <mxCell id="gwxwzvbnGM9TcDCXfKu9-2" value="validate credentials" style="text;html=1;strokeColor=none;fillColor=none;align=left;verticalAlign=middle;whiteSpace=wrap;rounded=0;fontSize=12;fontFamily=Helvetica;spacingLeft=4;" parent="DcINIHE9Md0JuFdxifOZ-1" vertex="1">
          <mxGeometry x="370" y="-2819.62" width="145" height="20" as="geometry" />
        </mxCell>
        <mxCell id="-JjzeGY5DmQqjHO0HbsP-1" style="edgeStyle=none;curved=1;rounded=0;orthogonalLoop=1;jettySize=auto;html=1;entryX=0;entryY=0.5;entryDx=0;entryDy=0;fontSize=12;startSize=8;endSize=8;fontFamily=Helvetica;" parent="DcINIHE9Md0JuFdxifOZ-1" edge="1">
          <mxGeometry relative="1" as="geometry">
            <mxPoint x="356.9999999999998" y="-2599.25" as="sourcePoint" />
            <mxPoint x="356.9999999999998" y="-2599.25" as="targetPoint" />
          </mxGeometry>
        </mxCell>
        <mxCell id="aDpPlxbRU-LtX5YqkH5g-9" style="edgeStyle=none;curved=1;rounded=0;orthogonalLoop=1;jettySize=auto;html=1;entryX=0;entryY=0;entryDx=0;entryDy=0;fontSize=12;startSize=8;endSize=8;exitX=1;exitY=1;exitDx=0;exitDy=0;dashed=1;fontFamily=Helvetica;" parent="DcINIHE9Md0JuFdxifOZ-1" source="aDpPlxbRU-LtX5YqkH5g-2" target="aDpPlxbRU-LtX5YqkH5g-4" edge="1">
          <mxGeometry relative="1" as="geometry" />
        </mxCell>
        <mxCell id="aDpPlxbRU-LtX5YqkH5g-4" value="2" style="rounded=0;whiteSpace=wrap;html=1;fontSize=16;fontFamily=Helvetica;" parent="DcINIHE9Md0JuFdxifOZ-1" vertex="1">
          <mxGeometry x="350" y="-2819.25" width="20" height="19.25" as="geometry" />
        </mxCell>
        <mxCell id="aDpPlxbRU-LtX5YqkH5g-39" style="edgeStyle=none;curved=1;rounded=0;orthogonalLoop=1;jettySize=auto;html=1;fontSize=12;startSize=8;endSize=8;exitX=0;exitY=1;exitDx=0;exitDy=0;dashed=1;fontFamily=Helvetica;" parent="DcINIHE9Md0JuFdxifOZ-1" source="aDpPlxbRU-LtX5YqkH5g-35" edge="1">
          <mxGeometry relative="1" as="geometry">
            <mxPoint x="170" y="-2570" as="targetPoint" />
            <mxPoint x="367" y="-2569.25" as="sourcePoint" />
          </mxGeometry>
        </mxCell>
        <mxCell id="aDpPlxbRU-LtX5YqkH5g-35" value="9" style="rounded=0;whiteSpace=wrap;html=1;fontSize=16;fontFamily=Helvetica;" parent="DcINIHE9Md0JuFdxifOZ-1" vertex="1">
          <mxGeometry x="350" y="-2589.25" width="20" height="19.25" as="geometry" />
        </mxCell>
        <mxCell id="aDpPlxbRU-LtX5YqkH5g-36" value="send 201 status" style="text;html=1;strokeColor=none;fillColor=none;align=left;verticalAlign=middle;whiteSpace=wrap;rounded=0;fontSize=12;fontFamily=Helvetica;spacingLeft=4;" parent="DcINIHE9Md0JuFdxifOZ-1" vertex="1">
          <mxGeometry x="370" y="-2590" width="152" height="20" as="geometry" />
        </mxCell>
        <mxCell id="aDpPlxbRU-LtX5YqkH5g-20" value="4" style="rounded=0;whiteSpace=wrap;html=1;fontSize=16;fontFamily=Helvetica;" parent="DcINIHE9Md0JuFdxifOZ-1" vertex="1">
          <mxGeometry x="350" y="-2759.25" width="20" height="19.25" as="geometry" />
        </mxCell>
        <mxCell id="aDpPlxbRU-LtX5YqkH5g-21" value="hash password" style="text;html=1;strokeColor=none;fillColor=none;align=left;verticalAlign=middle;whiteSpace=wrap;rounded=0;fontSize=12;fontFamily=Helvetica;spacingLeft=4;" parent="DcINIHE9Md0JuFdxifOZ-1" vertex="1">
          <mxGeometry x="370" y="-2759.62" width="145" height="20" as="geometry" />
        </mxCell>
        <mxCell id="Fc94_zL-ht2QpQ9U8r5v-6" style="edgeStyle=none;curved=1;rounded=0;orthogonalLoop=1;jettySize=auto;html=1;exitX=1;exitY=1;exitDx=0;exitDy=0;fontSize=12;startSize=8;endSize=8;entryX=0;entryY=0;entryDx=0;entryDy=0;" parent="DcINIHE9Md0JuFdxifOZ-1" source="aDpPlxbRU-LtX5YqkH5g-12" edge="1">
          <mxGeometry relative="1" as="geometry">
            <mxPoint x="694" y="-2650" as="targetPoint" />
            <mxPoint x="392" y="-2650" as="sourcePoint" />
          </mxGeometry>
        </mxCell>
        <mxCell id="aDpPlxbRU-LtX5YqkH5g-12" value="7" style="rounded=0;whiteSpace=wrap;html=1;fontSize=16;fontFamily=Helvetica;" parent="DcINIHE9Md0JuFdxifOZ-1" vertex="1">
          <mxGeometry x="350" y="-2670" width="20" height="20" as="geometry" />
        </mxCell>
        <mxCell id="aDpPlxbRU-LtX5YqkH5g-13" value="publish user:created&amp;nbsp;" style="text;html=1;strokeColor=#36393d;fillColor=#cdeb8b;align=left;verticalAlign=middle;whiteSpace=wrap;rounded=0;fontSize=12;fontFamily=Helvetica;spacingLeft=4;" parent="DcINIHE9Md0JuFdxifOZ-1" vertex="1">
          <mxGeometry x="370" y="-2670" width="145" height="20" as="geometry" />
        </mxCell>
        <mxCell id="Fc94_zL-ht2QpQ9U8r5v-1" value="8" style="rounded=0;whiteSpace=wrap;html=1;fontSize=16;fontFamily=Helvetica;container=0;" parent="DcINIHE9Md0JuFdxifOZ-1" vertex="1">
          <mxGeometry x="350" y="-2640" width="20" height="20" as="geometry" />
        </mxCell>
        <mxCell id="Fc94_zL-ht2QpQ9U8r5v-2" value="publish user:created&amp;nbsp;" style="text;html=1;strokeColor=#36393d;fillColor=#cdeb8b;align=left;verticalAlign=middle;whiteSpace=wrap;rounded=0;fontSize=12;fontFamily=Helvetica;container=0;spacingLeft=4;" parent="DcINIHE9Md0JuFdxifOZ-1" vertex="1">
          <mxGeometry x="370" y="-2640" width="145" height="20" as="geometry" />
        </mxCell>
        <mxCell id="aDpPlxbRU-LtX5YqkH5g-29" style="edgeStyle=none;curved=1;rounded=0;orthogonalLoop=1;jettySize=auto;html=1;exitX=1;exitY=1;exitDx=0;exitDy=0;entryX=0;entryY=0;entryDx=0;entryDy=0;fontSize=12;startSize=8;endSize=8;fontFamily=Helvetica;" parent="DcINIHE9Md0JuFdxifOZ-1" source="Fc94_zL-ht2QpQ9U8r5v-1" edge="1">
          <mxGeometry relative="1" as="geometry">
            <mxPoint x="392" y="-2620" as="sourcePoint" />
            <mxPoint x="547" y="-2618.88" as="targetPoint" />
          </mxGeometry>
        </mxCell>
        <mxCell id="Fc94_zL-ht2QpQ9U8r5v-5" style="edgeStyle=none;curved=1;rounded=0;orthogonalLoop=1;jettySize=auto;html=1;fontSize=12;startSize=8;endSize=8;" parent="DcINIHE9Md0JuFdxifOZ-1" source="Fc94_zL-ht2QpQ9U8r5v-4" edge="1">
          <mxGeometry relative="1" as="geometry">
            <mxPoint x="694" y="-2520" as="targetPoint" />
          </mxGeometry>
        </mxCell>
        <mxCell id="Fc94_zL-ht2QpQ9U8r5v-4" value="Email" style="rounded=0;whiteSpace=wrap;html=1;fontFamily=Helvetica;" parent="DcINIHE9Md0JuFdxifOZ-1" vertex="1">
          <mxGeometry x="634" y="-2920" width="120" height="40" as="geometry" />
        </mxCell>
        <mxCell id="aDpPlxbRU-LtX5YqkH5g-23" value="5" style="rounded=0;whiteSpace=wrap;html=1;fontSize=16;fontFamily=Helvetica;" parent="DcINIHE9Md0JuFdxifOZ-1" vertex="1">
          <mxGeometry x="350" y="-2729.62" width="20" height="19.62" as="geometry" />
        </mxCell>
        <mxCell id="aDpPlxbRU-LtX5YqkH5g-24" value="save user to database" style="text;html=1;strokeColor=none;fillColor=none;align=left;verticalAlign=middle;whiteSpace=wrap;rounded=0;fontSize=12;fontFamily=Helvetica;spacingLeft=4;" parent="DcINIHE9Md0JuFdxifOZ-1" vertex="1">
          <mxGeometry x="370" y="-2729.81" width="145" height="20" as="geometry" />
        </mxCell>
        <mxCell id="ynQLacg2qUebnxrFnXKf-1" value="6" style="rounded=0;whiteSpace=wrap;html=1;fontSize=16;fontFamily=Helvetica;" parent="DcINIHE9Md0JuFdxifOZ-1" vertex="1">
          <mxGeometry x="350" y="-2700" width="20" height="20" as="geometry" />
        </mxCell>
        <mxCell id="ynQLacg2qUebnxrFnXKf-2" value="save user profile to database" style="text;html=1;fillColor=none;align=left;verticalAlign=middle;whiteSpace=wrap;rounded=0;fontSize=12;fontFamily=Helvetica;spacingLeft=4;" parent="DcINIHE9Md0JuFdxifOZ-1" vertex="1">
          <mxGeometry x="370" y="-2700" width="165" height="20" as="geometry" />
        </mxCell>
        <mxCell id="ynQLacg2qUebnxrFnXKf-3" style="edgeStyle=none;curved=1;rounded=0;orthogonalLoop=1;jettySize=auto;html=1;exitX=1;exitY=0.75;exitDx=0;exitDy=0;fontSize=12;startSize=8;endSize=8;" parent="DcINIHE9Md0JuFdxifOZ-1" source="ynQLacg2qUebnxrFnXKf-1" target="ynQLacg2qUebnxrFnXKf-1" edge="1">
          <mxGeometry relative="1" as="geometry" />
        </mxCell>
        <mxCell id="aDpPlxbRU-LtX5YqkH5g-15" value="3" style="rounded=0;whiteSpace=wrap;html=1;fontSize=16;fontFamily=Helvetica;" parent="DcINIHE9Md0JuFdxifOZ-1" vertex="1">
          <mxGeometry x="350" y="-2790" width="20" height="19.25" as="geometry" />
        </mxCell>
        <mxCell id="aDpPlxbRU-LtX5YqkH5g-17" value="check if email exists" style="text;html=1;strokeColor=none;fillColor=none;align=left;verticalAlign=middle;whiteSpace=wrap;rounded=0;fontSize=12;fontFamily=Helvetica;spacingLeft=4;" parent="DcINIHE9Md0JuFdxifOZ-1" vertex="1">
          <mxGeometry x="370" y="-2790.38" width="145" height="20" as="geometry" />
        </mxCell>
        <mxCell id="Rpn8YX2OmCidEw6mDE1J-1" style="edgeStyle=none;curved=1;rounded=0;orthogonalLoop=1;jettySize=auto;html=1;exitX=1;exitY=0.5;exitDx=0;exitDy=0;fontSize=12;startSize=8;endSize=8;" parent="DcINIHE9Md0JuFdxifOZ-1" source="aDpPlxbRU-LtX5YqkH5g-4" target="aDpPlxbRU-LtX5YqkH5g-4" edge="1">
          <mxGeometry relative="1" as="geometry" />
        </mxCell>
        <mxCell id="1SiXSLJkxfQEVCnoLtcS-28" value="client sends email, password and&lt;br style=&quot;border-color: var(--border-color);&quot;&gt;&lt;span style=&quot;background-color: rgb(255, 255, 255);&quot;&gt;displayName&lt;/span&gt;" style="text;html=1;strokeColor=none;fillColor=none;align=right;verticalAlign=middle;whiteSpace=wrap;rounded=0;fontSize=12;fontFamily=Helvetica;spacingRight=4;" parent="DcINIHE9Md0JuFdxifOZ-1" vertex="1">
          <mxGeometry x="40" y="-2860" width="120" height="40" as="geometry" />
        </mxCell>
        <mxCell id="aDpPlxbRU-LtX5YqkH5g-2" value="1" style="rounded=0;whiteSpace=wrap;html=1;fontSize=16;fontFamily=Helvetica;" parent="DcINIHE9Md0JuFdxifOZ-1" vertex="1">
          <mxGeometry x="160" y="-2860" width="20" height="40" as="geometry" />
        </mxCell>
      </root>
    </mxGraphModel>
  </diagram>
  <diagram id="qkOOW3p0oujMwDbJF43H" name="âœ… /me">
    <mxGraphModel dx="794" dy="1727" grid="1" gridSize="10" guides="1" tooltips="1" connect="1" arrows="1" fold="1" page="0" pageScale="1" pageWidth="827" pageHeight="1169" math="0" shadow="0">
      <root>
        <mxCell id="0" />
        <mxCell id="1" parent="0" />
        <mxCell id="zeNma_by0tcVsznyShqb-4" style="edgeStyle=none;curved=1;rounded=0;orthogonalLoop=1;jettySize=auto;html=1;fontSize=12;startSize=8;endSize=8;fontFamily=Helvetica;" parent="1" source="zeNma_by0tcVsznyShqb-1" edge="1">
          <mxGeometry relative="1" as="geometry">
            <mxPoint x="180" y="-920" as="targetPoint" />
          </mxGeometry>
        </mxCell>
        <mxCell id="zeNma_by0tcVsznyShqb-1" value="Client" style="rounded=0;whiteSpace=wrap;html=1;fontFamily=Helvetica;" parent="1" vertex="1">
          <mxGeometry x="120" y="-1170" width="120" height="40" as="geometry" />
        </mxCell>
        <mxCell id="zeNma_by0tcVsznyShqb-6" style="edgeStyle=none;curved=1;rounded=0;orthogonalLoop=1;jettySize=auto;html=1;fontSize=12;startSize=8;endSize=8;fontFamily=Helvetica;" parent="1" source="zeNma_by0tcVsznyShqb-3" edge="1">
          <mxGeometry relative="1" as="geometry">
            <mxPoint x="455" y="-920" as="targetPoint" />
          </mxGeometry>
        </mxCell>
        <mxCell id="zeNma_by0tcVsznyShqb-3" value="User" style="rounded=0;whiteSpace=wrap;html=1;fontFamily=Helvetica;" parent="1" vertex="1">
          <mxGeometry x="395" y="-1170" width="120" height="40" as="geometry" />
        </mxCell>
        <mxCell id="FFp1TGznygiZZA5B6Qv5-2" value="sends a request get /me" style="text;html=1;strokeColor=none;fillColor=none;align=right;verticalAlign=middle;whiteSpace=wrap;rounded=0;fontSize=12;fontFamily=Helvetica;spacingRight=4;" parent="1" vertex="1">
          <mxGeometry x="50" y="-1110" width="120" height="30" as="geometry" />
        </mxCell>
        <mxCell id="lxoVpjz4p4-hPzR8mut3-5" style="edgeStyle=none;curved=1;rounded=0;orthogonalLoop=1;jettySize=auto;html=1;exitX=1;exitY=1;exitDx=0;exitDy=0;entryX=0;entryY=0;entryDx=0;entryDy=0;fontSize=12;startSize=8;endSize=8;fontFamily=Helvetica;" parent="1" source="FFp1TGznygiZZA5B6Qv5-3" target="lxoVpjz4p4-hPzR8mut3-2" edge="1">
          <mxGeometry relative="1" as="geometry" />
        </mxCell>
        <mxCell id="FFp1TGznygiZZA5B6Qv5-3" value="1" style="rounded=0;whiteSpace=wrap;html=1;fontSize=16;fontFamily=Helvetica;" parent="1" vertex="1">
          <mxGeometry x="170" y="-1110" width="20" height="30" as="geometry" />
        </mxCell>
        <mxCell id="lxoVpjz4p4-hPzR8mut3-6" value="" style="group;fontFamily=Helvetica;" parent="1" vertex="1" connectable="0">
          <mxGeometry x="445" y="-1080" width="170" height="30" as="geometry" />
        </mxCell>
        <mxCell id="lxoVpjz4p4-hPzR8mut3-2" value="2" style="rounded=0;whiteSpace=wrap;html=1;fontSize=16;fontFamily=Helvetica;" parent="lxoVpjz4p4-hPzR8mut3-6" vertex="1">
          <mxGeometry y="0.75" width="20" height="29.25" as="geometry" />
        </mxCell>
        <mxCell id="lxoVpjz4p4-hPzR8mut3-3" value="check if user is authenticated" style="text;html=1;strokeColor=none;fillColor=none;align=left;verticalAlign=middle;whiteSpace=wrap;rounded=0;fontSize=12;fontFamily=Helvetica;" parent="lxoVpjz4p4-hPzR8mut3-6" vertex="1">
          <mxGeometry x="25" width="145" height="30" as="geometry" />
        </mxCell>
        <mxCell id="DFqemNS5LXudW9SMYd1e-1" style="edgeStyle=none;curved=1;rounded=0;orthogonalLoop=1;jettySize=auto;html=1;exitX=0;exitY=1;exitDx=0;exitDy=0;fontSize=12;startSize=8;endSize=8;entryX=1;entryY=0;entryDx=0;entryDy=0;fontFamily=Helvetica;" parent="1" source="lxoVpjz4p4-hPzR8mut3-8" target="DFqemNS5LXudW9SMYd1e-2" edge="1">
          <mxGeometry relative="1" as="geometry">
            <mxPoint x="215" y="-1009.8" as="targetPoint" />
          </mxGeometry>
        </mxCell>
        <mxCell id="DFqemNS5LXudW9SMYd1e-3" value="" style="group;fontFamily=Helvetica;" parent="1" vertex="1" connectable="0">
          <mxGeometry x="445" y="-1040" width="170" height="30" as="geometry" />
        </mxCell>
        <mxCell id="lxoVpjz4p4-hPzR8mut3-8" value="3" style="rounded=0;whiteSpace=wrap;html=1;fontSize=16;fontFamily=Helvetica;" parent="DFqemNS5LXudW9SMYd1e-3" vertex="1">
          <mxGeometry y="0.75" width="20" height="29.25" as="geometry" />
        </mxCell>
        <mxCell id="lxoVpjz4p4-hPzR8mut3-9" value="finds user info like email, displayName, etc." style="text;html=1;strokeColor=none;fillColor=none;align=left;verticalAlign=middle;whiteSpace=wrap;rounded=0;fontSize=12;fontFamily=Helvetica;" parent="DFqemNS5LXudW9SMYd1e-3" vertex="1">
          <mxGeometry x="25" width="145" height="30" as="geometry" />
        </mxCell>
        <mxCell id="DFqemNS5LXudW9SMYd1e-2" value="4" style="rounded=0;whiteSpace=wrap;html=1;fontSize=16;fontFamily=Helvetica;" parent="1" vertex="1">
          <mxGeometry x="170" y="-1010" width="20" height="30" as="geometry" />
        </mxCell>
        <mxCell id="DFqemNS5LXudW9SMYd1e-4" value="client will get 401 or currentUser" style="text;html=1;strokeColor=none;fillColor=none;align=right;verticalAlign=middle;whiteSpace=wrap;rounded=0;fontSize=12;fontFamily=Helvetica;spacingRight=4;" parent="1" vertex="1">
          <mxGeometry x="25" y="-1010" width="145" height="30" as="geometry" />
        </mxCell>
      </root>
    </mxGraphModel>
  </diagram>
  <diagram id="4Roz_05XzpMFhvkBFWob" name="/confirm-email">
    <mxGraphModel dx="1050" dy="2271" grid="1" gridSize="10" guides="1" tooltips="1" connect="1" arrows="1" fold="1" page="0" pageScale="1" pageWidth="827" pageHeight="1169" math="0" shadow="0">
      <root>
        <mxCell id="0" />
        <mxCell id="1" parent="0" />
        <mxCell id="yQAr02pDaFe2VWgrR58J-1" style="edgeStyle=none;curved=1;rounded=0;orthogonalLoop=1;jettySize=auto;html=1;fontSize=12;startSize=8;endSize=8;fontFamily=Helvetica;verticalAlign=middle;" parent="1" source="yQAr02pDaFe2VWgrR58J-2" edge="1">
          <mxGeometry relative="1" as="geometry">
            <mxPoint x="260" y="-680" as="targetPoint" />
          </mxGeometry>
        </mxCell>
        <mxCell id="yQAr02pDaFe2VWgrR58J-2" value="Client" style="rounded=0;whiteSpace=wrap;html=1;fontFamily=Helvetica;verticalAlign=middle;" parent="1" vertex="1">
          <mxGeometry x="200" y="-1230" width="120" height="40" as="geometry" />
        </mxCell>
        <mxCell id="yQAr02pDaFe2VWgrR58J-3" style="edgeStyle=none;curved=1;rounded=0;orthogonalLoop=1;jettySize=auto;html=1;fontSize=12;startSize=8;endSize=8;fontFamily=Helvetica;verticalAlign=middle;" parent="1" source="yQAr02pDaFe2VWgrR58J-4" edge="1">
          <mxGeometry relative="1" as="geometry">
            <mxPoint x="452" y="-680" as="targetPoint" />
          </mxGeometry>
        </mxCell>
        <mxCell id="yQAr02pDaFe2VWgrR58J-4" value="User" style="rounded=0;whiteSpace=wrap;html=1;fontFamily=Helvetica;verticalAlign=middle;" parent="1" vertex="1">
          <mxGeometry x="392" y="-1230" width="120" height="40" as="geometry" />
        </mxCell>
        <mxCell id="yQAr02pDaFe2VWgrR58J-5" style="edgeStyle=none;curved=1;rounded=0;orthogonalLoop=1;jettySize=auto;html=1;fontSize=12;startSize=8;endSize=8;fontFamily=Helvetica;verticalAlign=middle;" parent="1" source="yQAr02pDaFe2VWgrR58J-6" edge="1">
          <mxGeometry relative="1" as="geometry">
            <mxPoint x="630" y="-680" as="targetPoint" />
          </mxGeometry>
        </mxCell>
        <mxCell id="yQAr02pDaFe2VWgrR58J-6" value="Email" style="rounded=0;whiteSpace=wrap;html=1;fontFamily=Helvetica;verticalAlign=middle;" parent="1" vertex="1">
          <mxGeometry x="572" y="-1230" width="120" height="40" as="geometry" />
        </mxCell>
        <mxCell id="yQAr02pDaFe2VWgrR58J-7" value="validate credentials" style="text;html=1;strokeColor=none;fillColor=none;align=left;verticalAlign=middle;whiteSpace=wrap;rounded=0;fontSize=12;fontFamily=Helvetica;spacingLeft=4;" parent="1" vertex="1">
          <mxGeometry x="462" y="-1140" width="145" height="20" as="geometry" />
        </mxCell>
        <mxCell id="yQAr02pDaFe2VWgrR58J-8" style="edgeStyle=none;curved=1;rounded=0;orthogonalLoop=1;jettySize=auto;html=1;entryX=0;entryY=0.5;entryDx=0;entryDy=0;fontSize=12;startSize=8;endSize=8;fontFamily=Helvetica;verticalAlign=middle;" parent="1" edge="1">
          <mxGeometry relative="1" as="geometry">
            <mxPoint x="441.9999999999998" y="-940" as="sourcePoint" />
            <mxPoint x="441.9999999999998" y="-940" as="targetPoint" />
          </mxGeometry>
        </mxCell>
        <mxCell id="yQAr02pDaFe2VWgrR58J-9" style="edgeStyle=none;curved=1;rounded=0;orthogonalLoop=1;jettySize=auto;html=1;entryX=0;entryY=0;entryDx=0;entryDy=0;fontSize=12;startSize=8;endSize=8;exitX=1;exitY=1;exitDx=0;exitDy=0;dashed=1;fontFamily=Helvetica;verticalAlign=middle;" parent="1" source="yQAr02pDaFe2VWgrR58J-31" target="yQAr02pDaFe2VWgrR58J-10" edge="1">
          <mxGeometry relative="1" as="geometry" />
        </mxCell>
        <mxCell id="yQAr02pDaFe2VWgrR58J-10" value="2" style="rounded=0;whiteSpace=wrap;html=1;fontSize=16;fontFamily=Helvetica;verticalAlign=middle;" parent="1" vertex="1">
          <mxGeometry x="442" y="-1140" width="20" height="20" as="geometry" />
        </mxCell>
        <mxCell id="yQAr02pDaFe2VWgrR58J-23" style="edgeStyle=none;curved=1;rounded=0;orthogonalLoop=1;jettySize=auto;html=1;exitX=0.5;exitY=1;exitDx=0;exitDy=0;entryX=0;entryY=0;entryDx=0;entryDy=0;fontSize=12;startSize=8;endSize=8;fontFamily=Helvetica;verticalAlign=middle;" parent="1" source="yQAr02pDaFe2VWgrR58J-12" edge="1">
          <mxGeometry relative="1" as="geometry">
            <mxPoint x="617" y="-1000" as="targetPoint" />
          </mxGeometry>
        </mxCell>
        <mxCell id="yQAr02pDaFe2VWgrR58J-24" style="edgeStyle=none;curved=1;rounded=0;orthogonalLoop=1;jettySize=auto;html=1;fontSize=12;startSize=8;endSize=8;exitX=0;exitY=1;exitDx=0;exitDy=0;dashed=1;fontFamily=Helvetica;verticalAlign=middle;" parent="1" source="yQAr02pDaFe2VWgrR58J-25" edge="1">
          <mxGeometry relative="1" as="geometry">
            <mxPoint x="260" y="-970" as="targetPoint" />
            <mxPoint x="452" y="-910" as="sourcePoint" />
          </mxGeometry>
        </mxCell>
        <mxCell id="yQAr02pDaFe2VWgrR58J-25" value="7" style="rounded=0;whiteSpace=wrap;html=1;fontSize=16;fontFamily=Helvetica;verticalAlign=middle;" parent="1" vertex="1">
          <mxGeometry x="442" y="-990" width="20" height="20" as="geometry" />
        </mxCell>
        <mxCell id="yQAr02pDaFe2VWgrR58J-26" value="send 201 status" style="text;html=1;strokeColor=none;fillColor=none;align=left;verticalAlign=middle;whiteSpace=wrap;rounded=0;fontSize=12;fontFamily=Helvetica;spacingLeft=4;" parent="1" vertex="1">
          <mxGeometry x="462" y="-990" width="145" height="20" as="geometry" />
        </mxCell>
        <mxCell id="yQAr02pDaFe2VWgrR58J-75" style="edgeStyle=none;curved=1;rounded=0;orthogonalLoop=1;jettySize=auto;html=1;fontSize=12;startSize=8;endSize=8;fontFamily=Helvetica;verticalAlign=middle;" parent="1" source="yQAr02pDaFe2VWgrR58J-74" edge="1">
          <mxGeometry relative="1" as="geometry">
            <mxPoint x="70" y="-680" as="targetPoint" />
          </mxGeometry>
        </mxCell>
        <mxCell id="yQAr02pDaFe2VWgrR58J-74" value="Gmail" style="rounded=0;whiteSpace=wrap;html=1;fontFamily=Helvetica;verticalAlign=middle;" parent="1" vertex="1">
          <mxGeometry x="10" y="-1230" width="120" height="40" as="geometry" />
        </mxCell>
        <mxCell id="yQAr02pDaFe2VWgrR58J-81" style="edgeStyle=none;curved=1;rounded=0;orthogonalLoop=1;jettySize=auto;html=1;exitX=1;exitY=1;exitDx=0;exitDy=0;fontSize=12;startSize=8;endSize=8;entryX=0;entryY=0;entryDx=0;entryDy=0;fontFamily=Helvetica;verticalAlign=middle;exitPerimeter=0;" parent="1" source="yQAr02pDaFe2VWgrR58J-79" target="yQAr02pDaFe2VWgrR58J-84" edge="1">
          <mxGeometry relative="1" as="geometry">
            <mxPoint x="440" y="-830" as="targetPoint" />
            <mxPoint x="80" y="-870" as="sourcePoint" />
          </mxGeometry>
        </mxCell>
        <mxCell id="yQAr02pDaFe2VWgrR58J-96" style="edgeStyle=none;curved=1;rounded=0;orthogonalLoop=1;jettySize=auto;html=1;exitX=0.5;exitY=1;exitDx=0;exitDy=0;fontSize=12;startSize=8;endSize=8;fontFamily=Helvetica;verticalAlign=middle;" parent="1" source="yQAr02pDaFe2VWgrR58J-94" edge="1">
          <mxGeometry relative="1" as="geometry">
            <mxPoint x="630" y="-760" as="targetPoint" />
          </mxGeometry>
        </mxCell>
        <mxCell id="yQAr02pDaFe2VWgrR58J-30" value="sends email, password and&lt;br style=&quot;border-color: var(--border-color);&quot;&gt;&lt;span style=&quot;background-color: rgb(255, 255, 255);&quot;&gt;displayName&lt;/span&gt;" style="text;html=1;strokeColor=none;fillColor=none;align=right;verticalAlign=middle;whiteSpace=wrap;rounded=0;fontSize=12;fontFamily=Helvetica;spacingRight=4;" parent="1" vertex="1">
          <mxGeometry x="130" y="-1180" width="120" height="40" as="geometry" />
        </mxCell>
        <mxCell id="yQAr02pDaFe2VWgrR58J-31" value="1" style="rounded=0;whiteSpace=wrap;html=1;fontSize=16;fontFamily=Helvetica;verticalAlign=middle;" parent="1" vertex="1">
          <mxGeometry x="250" y="-1180" width="20" height="40" as="geometry" />
        </mxCell>
        <mxCell id="yQAr02pDaFe2VWgrR58J-15" value="3" style="rounded=0;whiteSpace=wrap;html=1;fontSize=16;fontFamily=Helvetica;verticalAlign=middle;" parent="1" vertex="1">
          <mxGeometry x="442" y="-1110" width="20" height="19.25" as="geometry" />
        </mxCell>
        <mxCell id="yQAr02pDaFe2VWgrR58J-16" value="check if email exists" style="text;html=1;strokeColor=none;fillColor=none;align=left;verticalAlign=middle;whiteSpace=wrap;rounded=0;fontSize=12;fontFamily=Helvetica;spacingLeft=4;" parent="1" vertex="1">
          <mxGeometry x="462" y="-1110.37" width="145" height="20" as="geometry" />
        </mxCell>
        <mxCell id="yQAr02pDaFe2VWgrR58J-18" value="4" style="rounded=0;whiteSpace=wrap;html=1;fontSize=16;fontFamily=Helvetica;verticalAlign=middle;" parent="1" vertex="1">
          <mxGeometry x="442" y="-1079.63" width="20" height="19.25" as="geometry" />
        </mxCell>
        <mxCell id="yQAr02pDaFe2VWgrR58J-19" value="hash password" style="text;html=1;strokeColor=none;fillColor=none;align=left;verticalAlign=middle;whiteSpace=wrap;rounded=0;fontSize=12;fontFamily=Helvetica;spacingLeft=4;" parent="1" vertex="1">
          <mxGeometry x="462" y="-1080" width="145" height="20" as="geometry" />
        </mxCell>
        <mxCell id="yQAr02pDaFe2VWgrR58J-21" value="5" style="rounded=0;whiteSpace=wrap;html=1;fontSize=16;fontFamily=Helvetica;container=0;verticalAlign=middle;" parent="1" vertex="1">
          <mxGeometry x="442" y="-1050" width="20" height="20" as="geometry" />
        </mxCell>
        <mxCell id="yQAr02pDaFe2VWgrR58J-22" value="save user to database" style="text;html=1;strokeColor=none;fillColor=none;align=left;verticalAlign=middle;whiteSpace=wrap;rounded=0;fontSize=12;fontFamily=Helvetica;spacingLeft=4;" parent="1" vertex="1">
          <mxGeometry x="462" y="-1050" width="145" height="20" as="geometry" />
        </mxCell>
        <mxCell id="yQAr02pDaFe2VWgrR58J-12" value="6" style="rounded=0;whiteSpace=wrap;html=1;fontSize=16;fontFamily=Helvetica;verticalAlign=middle;" parent="1" vertex="1">
          <mxGeometry x="442" y="-1020" width="20" height="20" as="geometry" />
        </mxCell>
        <mxCell id="yQAr02pDaFe2VWgrR58J-13" value="publish user:created&amp;nbsp;" style="text;html=1;strokeColor=#36393d;fillColor=#cdeb8b;align=left;verticalAlign=middle;whiteSpace=wrap;rounded=0;fontSize=12;fontFamily=Helvetica;spacingLeft=4;" parent="1" vertex="1">
          <mxGeometry x="462" y="-1020" width="118" height="20" as="geometry" />
        </mxCell>
        <mxCell id="DvRgQQ3hqZq9wkwrBImo-7" style="edgeStyle=none;curved=1;rounded=0;orthogonalLoop=1;jettySize=auto;html=1;exitX=0;exitY=1;exitDx=0;exitDy=0;entryX=1;entryY=0;entryDx=0;entryDy=0;fontSize=12;startSize=8;endSize=8;" parent="1" source="DvRgQQ3hqZq9wkwrBImo-4" target="DvRgQQ3hqZq9wkwrBImo-5" edge="1">
          <mxGeometry relative="1" as="geometry" />
        </mxCell>
        <mxCell id="DvRgQQ3hqZq9wkwrBImo-8" value="" style="group" parent="1" vertex="1" connectable="0">
          <mxGeometry x="617" y="-1000" width="168" height="30" as="geometry" />
        </mxCell>
        <mxCell id="yQAr02pDaFe2VWgrR58J-27" value="6.1" style="rounded=0;whiteSpace=wrap;html=1;fontSize=16;fontFamily=Helvetica;verticalAlign=middle;" parent="DvRgQQ3hqZq9wkwrBImo-8" vertex="1">
          <mxGeometry width="30" height="30" as="geometry" />
        </mxCell>
        <mxCell id="yQAr02pDaFe2VWgrR58J-28" value="creates a email confirmation token." style="text;html=1;strokeColor=none;fillColor=none;align=left;verticalAlign=middle;whiteSpace=wrap;rounded=0;fontSize=12;fontFamily=Helvetica;spacingLeft=4;" parent="DvRgQQ3hqZq9wkwrBImo-8" vertex="1">
          <mxGeometry x="30" width="138" height="30" as="geometry" />
        </mxCell>
        <mxCell id="DvRgQQ3hqZq9wkwrBImo-9" value="" style="group" parent="1" vertex="1" connectable="0">
          <mxGeometry x="617" y="-960" width="168" height="20" as="geometry" />
        </mxCell>
        <mxCell id="yQAr02pDaFe2VWgrR58J-59" value="6.2" style="rounded=0;whiteSpace=wrap;html=1;fontSize=16;container=0;fontFamily=Helvetica;verticalAlign=middle;" parent="DvRgQQ3hqZq9wkwrBImo-9" vertex="1">
          <mxGeometry width="30" height="20" as="geometry" />
        </mxCell>
        <mxCell id="yQAr02pDaFe2VWgrR58J-60" value="send the email." style="text;html=1;strokeColor=none;fillColor=none;align=left;verticalAlign=middle;whiteSpace=wrap;rounded=0;fontSize=12;fontFamily=Helvetica;container=0;spacingLeft=4;" parent="DvRgQQ3hqZq9wkwrBImo-9" vertex="1">
          <mxGeometry x="30" width="138" height="20" as="geometry" />
        </mxCell>
        <mxCell id="DvRgQQ3hqZq9wkwrBImo-10" style="edgeStyle=none;curved=1;rounded=0;orthogonalLoop=1;jettySize=auto;html=1;exitX=0;exitY=1;exitDx=0;exitDy=0;entryX=0;entryY=0;entryDx=0;entryDy=0;fontSize=12;startSize=8;endSize=8;" parent="1" source="yQAr02pDaFe2VWgrR58J-59" target="yQAr02pDaFe2VWgrR58J-80" edge="1">
          <mxGeometry relative="1" as="geometry" />
        </mxCell>
        <mxCell id="DvRgQQ3hqZq9wkwrBImo-11" value="" style="group" parent="1" vertex="1" connectable="0">
          <mxGeometry x="442" y="-910.38" width="165" height="40.38" as="geometry" />
        </mxCell>
        <mxCell id="yQAr02pDaFe2VWgrR58J-72" value="save email-confirmation token" style="text;html=1;strokeColor=none;fillColor=none;align=left;verticalAlign=middle;whiteSpace=wrap;rounded=0;fontSize=12;fontFamily=Helvetica;spacingLeft=4;" parent="DvRgQQ3hqZq9wkwrBImo-11" vertex="1">
          <mxGeometry x="20" width="145" height="40.38" as="geometry" />
        </mxCell>
        <mxCell id="DvRgQQ3hqZq9wkwrBImo-5" value="8" style="rounded=0;whiteSpace=wrap;html=1;fontSize=16;fontFamily=Helvetica;verticalAlign=middle;" parent="DvRgQQ3hqZq9wkwrBImo-11" vertex="1">
          <mxGeometry y="0.7672199999999909" width="20" height="38.86575" as="geometry" />
        </mxCell>
        <mxCell id="XfkkNX8uNqbd3rdOnk0G-1" value="" style="group" parent="1" vertex="1" connectable="0">
          <mxGeometry x="510" y="-930" width="137" height="20" as="geometry" />
        </mxCell>
        <mxCell id="yQAr02pDaFe2VWgrR58J-67" value="publish email:sent" style="text;html=1;strokeColor=#36393d;fillColor=#cdeb8b;align=left;verticalAlign=middle;whiteSpace=wrap;rounded=0;fontSize=12;fontFamily=Helvetica;spacingLeft=4;" parent="XfkkNX8uNqbd3rdOnk0G-1" vertex="1">
          <mxGeometry width="107" height="20" as="geometry" />
        </mxCell>
        <mxCell id="DvRgQQ3hqZq9wkwrBImo-4" value="6.3" style="rounded=0;whiteSpace=wrap;html=1;fontSize=16;container=0;fontFamily=Helvetica;verticalAlign=middle;" parent="XfkkNX8uNqbd3rdOnk0G-1" vertex="1">
          <mxGeometry x="107" width="30" height="20" as="geometry" />
        </mxCell>
        <mxCell id="FWJXutrZNi6juHhBbPCN-1" value="" style="group" parent="1" vertex="1" connectable="0">
          <mxGeometry x="442" y="-850" width="165" height="20" as="geometry" />
        </mxCell>
        <mxCell id="yQAr02pDaFe2VWgrR58J-84" value="9" style="rounded=0;whiteSpace=wrap;html=1;fontSize=16;fontFamily=Helvetica;verticalAlign=middle;" parent="FWJXutrZNi6juHhBbPCN-1" vertex="1">
          <mxGeometry y="0.37000000000000455" width="20" height="19.25" as="geometry" />
        </mxCell>
        <mxCell id="yQAr02pDaFe2VWgrR58J-85" value="verify token" style="text;html=1;strokeColor=none;fillColor=none;align=left;verticalAlign=middle;whiteSpace=wrap;rounded=0;fontSize=12;fontFamily=Helvetica;spacingLeft=4;" parent="FWJXutrZNi6juHhBbPCN-1" vertex="1">
          <mxGeometry x="20" width="145" height="20" as="geometry" />
        </mxCell>
        <mxCell id="FWJXutrZNi6juHhBbPCN-2" value="" style="group" parent="1" vertex="1" connectable="0">
          <mxGeometry x="442" y="-820.38" width="165" height="30" as="geometry" />
        </mxCell>
        <mxCell id="yQAr02pDaFe2VWgrR58J-90" value="10" style="rounded=0;whiteSpace=wrap;html=1;fontSize=16;fontFamily=Helvetica;verticalAlign=middle;" parent="FWJXutrZNi6juHhBbPCN-2" vertex="1">
          <mxGeometry width="20" height="30" as="geometry" />
        </mxCell>
        <mxCell id="yQAr02pDaFe2VWgrR58J-91" value="if verified, set is_email_verified = true" style="text;html=1;strokeColor=none;fillColor=none;align=left;verticalAlign=middle;whiteSpace=wrap;rounded=0;fontSize=12;fontFamily=Helvetica;spacingLeft=4;" parent="FWJXutrZNi6juHhBbPCN-2" vertex="1">
          <mxGeometry x="20" width="145" height="30" as="geometry" />
        </mxCell>
        <mxCell id="FWJXutrZNi6juHhBbPCN-3" value="" style="group" parent="1" vertex="1" connectable="0">
          <mxGeometry x="442" y="-780.38" width="148" height="20" as="geometry" />
        </mxCell>
        <mxCell id="yQAr02pDaFe2VWgrR58J-94" value="11" style="rounded=0;whiteSpace=wrap;html=1;fontSize=16;fontFamily=Helvetica;verticalAlign=middle;" parent="FWJXutrZNi6juHhBbPCN-3" vertex="1">
          <mxGeometry width="20" height="20" as="geometry" />
        </mxCell>
        <mxCell id="yQAr02pDaFe2VWgrR58J-95" value="publish user:updated" style="text;html=1;strokeColor=#36393d;fillColor=#cdeb8b;align=left;verticalAlign=middle;whiteSpace=wrap;rounded=0;fontSize=12;fontFamily=Helvetica;spacingLeft=4;" parent="FWJXutrZNi6juHhBbPCN-3" vertex="1">
          <mxGeometry x="20" width="128" height="20" as="geometry" />
        </mxCell>
        <mxCell id="FWJXutrZNi6juHhBbPCN-5" value="" style="group" parent="1" vertex="1" connectable="0">
          <mxGeometry x="60" y="-940" width="165" height="90" as="geometry" />
        </mxCell>
        <mxCell id="yQAr02pDaFe2VWgrR58J-79" value="8" style="rounded=0;whiteSpace=wrap;html=1;fontSize=16;fontFamily=Helvetica;verticalAlign=middle;" parent="FWJXutrZNi6juHhBbPCN-5" vertex="1">
          <mxGeometry width="20" height="90" as="geometry" />
        </mxCell>
        <mxCell id="yQAr02pDaFe2VWgrR58J-80" value="clicks link" style="text;html=1;strokeColor=none;fillColor=none;align=left;verticalAlign=middle;whiteSpace=wrap;rounded=0;fontSize=12;fontFamily=Helvetica;spacingLeft=4;" parent="FWJXutrZNi6juHhBbPCN-5" vertex="1">
          <mxGeometry x="20" width="145" height="90" as="geometry" />
        </mxCell>
      </root>
    </mxGraphModel>
  </diagram>
  <diagram id="oY38kdm5o83EHuReV2T8" name="âœ… /verify-password">
    <mxGraphModel dx="794" dy="1727" grid="1" gridSize="10" guides="1" tooltips="1" connect="1" arrows="1" fold="1" page="0" pageScale="1" pageWidth="850" pageHeight="1100" math="0" shadow="0">
      <root>
        <mxCell id="0" />
        <mxCell id="1" parent="0" />
        <mxCell id="sdEwPJp4zkoKklKMmfEP-1" style="edgeStyle=none;curved=1;rounded=0;orthogonalLoop=1;jettySize=auto;html=1;fontSize=12;startSize=8;endSize=8;fontFamily=Helvetica;" parent="1" source="sdEwPJp4zkoKklKMmfEP-2" edge="1">
          <mxGeometry relative="1" as="geometry">
            <mxPoint x="170" y="-920" as="targetPoint" />
          </mxGeometry>
        </mxCell>
        <mxCell id="sdEwPJp4zkoKklKMmfEP-2" value="Identity" style="rounded=0;whiteSpace=wrap;html=1;fontFamily=Helvetica;" parent="1" vertex="1">
          <mxGeometry x="110" y="-1200" width="120" height="40" as="geometry" />
        </mxCell>
        <mxCell id="sdEwPJp4zkoKklKMmfEP-3" style="edgeStyle=none;curved=1;rounded=0;orthogonalLoop=1;jettySize=auto;html=1;fontSize=12;startSize=8;endSize=8;fontFamily=Helvetica;" parent="1" source="sdEwPJp4zkoKklKMmfEP-4" edge="1">
          <mxGeometry relative="1" as="geometry">
            <mxPoint x="450" y="-920" as="targetPoint" />
          </mxGeometry>
        </mxCell>
        <mxCell id="sdEwPJp4zkoKklKMmfEP-4" value="User" style="rounded=0;whiteSpace=wrap;html=1;fontFamily=Helvetica;" parent="1" vertex="1">
          <mxGeometry x="390" y="-1200" width="120" height="40" as="geometry" />
        </mxCell>
        <mxCell id="sdEwPJp4zkoKklKMmfEP-6" style="edgeStyle=none;curved=1;rounded=0;orthogonalLoop=1;jettySize=auto;html=1;exitX=1;exitY=1;exitDx=0;exitDy=0;entryX=0;entryY=0;entryDx=0;entryDy=0;fontSize=12;startSize=8;endSize=8;fontFamily=Helvetica;" parent="1" source="smrDSZM0pcQOYa3LXeEk-6" target="LEW-G3g9cezNZrhg7D1--1" edge="1">
          <mxGeometry relative="1" as="geometry">
            <mxPoint x="180" y="-1080" as="sourcePoint" />
            <mxPoint x="445" y="-1079.25" as="targetPoint" />
          </mxGeometry>
        </mxCell>
        <mxCell id="UAvLwBIKyPuWxdwejclX-7" style="edgeStyle=none;curved=1;rounded=0;orthogonalLoop=1;jettySize=auto;html=1;exitX=0;exitY=1;exitDx=0;exitDy=0;fontSize=12;startSize=8;endSize=8;" parent="1" source="_HuFlXUU0kpVzrusB87L-9" edge="1">
          <mxGeometry relative="1" as="geometry">
            <mxPoint x="170" y="-970" as="targetPoint" />
            <mxPoint x="445" y="-950" as="sourcePoint" />
          </mxGeometry>
        </mxCell>
        <mxCell id="LEW-G3g9cezNZrhg7D1--3" value="" style="group" vertex="1" connectable="0" parent="1">
          <mxGeometry x="440" y="-1080" width="138" height="40" as="geometry" />
        </mxCell>
        <mxCell id="LEW-G3g9cezNZrhg7D1--1" value="2" style="rounded=0;whiteSpace=wrap;html=1;fontSize=16;fontFamily=Helvetica;verticalAlign=middle;" vertex="1" parent="LEW-G3g9cezNZrhg7D1--3">
          <mxGeometry width="20" height="40" as="geometry" />
        </mxCell>
        <mxCell id="LEW-G3g9cezNZrhg7D1--2" value="Check if the user exists, find user from database" style="text;html=1;fillColor=none;align=left;verticalAlign=middle;whiteSpace=wrap;rounded=0;fontSize=12;fontFamily=Helvetica;spacingLeft=4;" vertex="1" parent="LEW-G3g9cezNZrhg7D1--3">
          <mxGeometry x="20" width="118" height="40" as="geometry" />
        </mxCell>
        <mxCell id="_HuFlXUU0kpVzrusB87L-2" value="" style="group" vertex="1" connectable="0" parent="1">
          <mxGeometry x="440" y="-1030" width="138" height="20" as="geometry" />
        </mxCell>
        <mxCell id="_HuFlXUU0kpVzrusB87L-3" value="3" style="rounded=0;whiteSpace=wrap;html=1;fontSize=16;fontFamily=Helvetica;verticalAlign=middle;" vertex="1" parent="_HuFlXUU0kpVzrusB87L-2">
          <mxGeometry width="20" height="20" as="geometry" />
        </mxCell>
        <mxCell id="_HuFlXUU0kpVzrusB87L-4" value="Verify password" style="text;html=1;fillColor=none;align=left;verticalAlign=middle;whiteSpace=wrap;rounded=0;fontSize=12;fontFamily=Helvetica;spacingLeft=4;" vertex="1" parent="_HuFlXUU0kpVzrusB87L-2">
          <mxGeometry x="20" width="118" height="20" as="geometry" />
        </mxCell>
        <mxCell id="_HuFlXUU0kpVzrusB87L-8" value="" style="group" vertex="1" connectable="0" parent="1">
          <mxGeometry x="440" y="-990" width="138" height="20" as="geometry" />
        </mxCell>
        <mxCell id="_HuFlXUU0kpVzrusB87L-9" value="4" style="rounded=0;whiteSpace=wrap;html=1;fontSize=16;fontFamily=Helvetica;verticalAlign=middle;" vertex="1" parent="_HuFlXUU0kpVzrusB87L-8">
          <mxGeometry width="20" height="20" as="geometry" />
        </mxCell>
        <mxCell id="_HuFlXUU0kpVzrusB87L-10" value="send 200 if verified" style="text;html=1;fillColor=none;align=left;verticalAlign=middle;whiteSpace=wrap;rounded=0;fontSize=12;fontFamily=Helvetica;spacingLeft=4;" vertex="1" parent="_HuFlXUU0kpVzrusB87L-8">
          <mxGeometry x="20" width="118" height="20" as="geometry" />
        </mxCell>
        <mxCell id="1z5MWBaqaVlg_9H_56OE-5" value="" style="group" vertex="1" connectable="0" parent="1">
          <mxGeometry x="50" y="-1130" width="137" height="50" as="geometry" />
        </mxCell>
        <mxCell id="smrDSZM0pcQOYa3LXeEk-5" value="send password and email to /verify-password" style="text;html=1;fillColor=none;align=right;verticalAlign=middle;whiteSpace=wrap;rounded=0;fontSize=12;fontFamily=Helvetica;spacingLeft=4;spacingRight=4;" vertex="1" parent="1z5MWBaqaVlg_9H_56OE-5">
          <mxGeometry width="107" height="50" as="geometry" />
        </mxCell>
        <mxCell id="smrDSZM0pcQOYa3LXeEk-6" value="1" style="rounded=0;whiteSpace=wrap;html=1;fontSize=16;container=0;fontFamily=Helvetica;verticalAlign=middle;" vertex="1" parent="1z5MWBaqaVlg_9H_56OE-5">
          <mxGeometry x="107" width="30" height="50" as="geometry" />
        </mxCell>
        <mxCell id="1z5MWBaqaVlg_9H_56OE-3" value="" style="edgeStyle=none;curved=1;rounded=0;orthogonalLoop=1;jettySize=auto;html=1;fontSize=12;startSize=8;endSize=8;" edge="1" parent="1z5MWBaqaVlg_9H_56OE-5" source="smrDSZM0pcQOYa3LXeEk-6" target="smrDSZM0pcQOYa3LXeEk-5">
          <mxGeometry relative="1" as="geometry" />
        </mxCell>
        <mxCell id="1z5MWBaqaVlg_9H_56OE-4" value="" style="edgeStyle=none;curved=1;rounded=0;orthogonalLoop=1;jettySize=auto;html=1;fontSize=12;startSize=8;endSize=8;" edge="1" parent="1z5MWBaqaVlg_9H_56OE-5" source="smrDSZM0pcQOYa3LXeEk-6" target="smrDSZM0pcQOYa3LXeEk-5">
          <mxGeometry relative="1" as="geometry" />
        </mxCell>
      </root>
    </mxGraphModel>
  </diagram>
</mxfile>
